<svg width="9" height="14" viewBox="0 0 9 14" fill="none" xmlns="http://www.w3.org/2000/svg">
<path fill-rule="evenodd" clip-rule="evenodd" d="M8.04175 6.0798C8.22923 6.26733 8.33454 6.52164 8.33454 6.7868C8.33454 7.05197 8.22923 7.30627 8.04175 7.4938L2.38475 13.1508C2.29251 13.2463 2.18216 13.3225 2.06016 13.3749C1.93816 13.4273 1.80694 13.4549 1.67416 13.4561C1.54138 13.4572 1.4097 13.4319 1.2868 13.3816C1.1639 13.3313 1.05225 13.2571 0.958359 13.1632C0.864467 13.0693 0.790214 12.9577 0.739933 12.8348C0.689652 12.7119 0.66435 12.5802 0.665504 12.4474C0.666658 12.3146 0.694244 12.1834 0.746653 12.0614C0.799062 11.9394 0.875244 11.829 0.970754 11.7368L5.92075 6.7868L0.970754 1.8368C0.788596 1.6482 0.687802 1.3956 0.69008 1.1334C0.692359 0.871203 0.797527 0.620391 0.982936 0.434983C1.16834 0.249575 1.41916 0.144406 1.68135 0.142128C1.94355 0.139849 2.19615 0.240644 2.38475 0.422802L8.04175 6.0798Z" fill="#FFFEFB"/>
</svg>
