<svg width="19" height="18" viewBox="0 0 19 18" fill="none" xmlns="http://www.w3.org/2000/svg">
<path d="M9 8.5V11C9 11.1427 9.04767 11.2617 9.143 11.357C9.23833 11.4523 9.35733 11.5 9.5 11.5C9.64267 11.5 9.76167 11.4523 9.857 11.357C9.95233 11.2617 10 11.1427 10 11V8.5H12.5C12.6427 8.5 12.7617 8.45233 12.857 8.357C12.9523 8.26167 13 8.14267 13 8C13 7.85733 12.9523 7.73833 12.857 7.643C12.7617 7.54767 12.6427 7.5 12.5 7.5H10V5C10 4.858 9.95233 4.739 9.857 4.643C9.76167 4.547 9.64267 4.49933 9.5 4.5C9.35733 4.50067 9.23833 4.54833 9.143 4.643C9.04767 4.73767 9 4.85667 9 5V7.5H6.5C6.358 7.5 6.239 7.54767 6.143 7.643C6.047 7.73833 5.99933 7.85733 6 8C6.00067 8.14267 6.04833 8.26167 6.143 8.357C6.23767 8.45233 6.35667 8.5 6.5 8.5H9ZM3.577 15L1.873 16.704C1.62033 16.9567 1.32833 17.0147 0.997 16.878C0.665667 16.7413 0.5 16.493 0.5 16.133V2.616C0.5 2.15533 0.654333 1.771 0.963 1.463C1.27167 1.155 1.656 1.00067 2.116 1H16.885C17.345 1 17.7293 1.15433 18.038 1.463C18.3467 1.77167 18.5007 2.156 18.5 2.616V13.385C18.5 13.845 18.346 14.2293 18.038 14.538C17.73 14.8467 17.3457 15.0007 16.885 15H3.577ZM3.15 14H16.885C17.0383 14 17.1793 13.936 17.308 13.808C17.4367 13.68 17.5007 13.539 17.5 13.385V2.615C17.5 2.46167 17.436 2.32067 17.308 2.192C17.18 2.06333 17.039 1.99933 16.885 2H2.115C1.96167 2 1.82067 2.064 1.692 2.192C1.56333 2.32 1.49933 2.461 1.5 2.615V15.645L3.15 14Z" fill="#000359"/>
<path d="M1.5 14V2M9 8.5V11C9 11.1427 9.04767 11.2617 9.143 11.357C9.23833 11.4523 9.35733 11.5 9.5 11.5C9.64267 11.5 9.76167 11.4523 9.857 11.357C9.95233 11.2617 10 11.1427 10 11V8.5H12.5C12.6427 8.5 12.7617 8.45233 12.857 8.357C12.9523 8.26167 13 8.14267 13 8C13 7.85733 12.9523 7.73833 12.857 7.643C12.7617 7.54767 12.6427 7.5 12.5 7.5H10V5C10 4.858 9.95233 4.739 9.857 4.643C9.76167 4.547 9.64267 4.49933 9.5 4.5C9.35733 4.50067 9.23833 4.54833 9.143 4.643C9.04767 4.73767 9 4.85667 9 5V7.5H6.5C6.358 7.5 6.239 7.54767 6.143 7.643C6.047 7.73833 5.99933 7.85733 6 8C6.00067 8.14267 6.04833 8.26167 6.143 8.357C6.23767 8.45233 6.35667 8.5 6.5 8.5H9ZM3.577 15L1.873 16.704C1.62033 16.9567 1.32833 17.0147 0.997 16.878C0.665667 16.7413 0.5 16.493 0.5 16.133V2.616C0.5 2.15533 0.654333 1.771 0.963 1.463C1.27167 1.155 1.656 1.00067 2.116 1H16.885C17.345 1 17.7293 1.15433 18.038 1.463C18.3467 1.77167 18.5007 2.156 18.5 2.616V13.385C18.5 13.845 18.346 14.2293 18.038 14.538C17.73 14.8467 17.3457 15.0007 16.885 15H3.577ZM3.15 14H16.885C17.0383 14 17.1793 13.936 17.308 13.808C17.4367 13.68 17.5007 13.539 17.5 13.385V2.615C17.5 2.46167 17.436 2.32067 17.308 2.192C17.18 2.06333 17.039 1.99933 16.885 2H2.115C1.96167 2 1.82067 2.064 1.692 2.192C1.56333 2.32 1.49933 2.461 1.5 2.615V15.645L3.15 14Z" stroke="#000359" stroke-width="0.5"/>
</svg>
