<svg width="11" height="22" viewBox="0 0 11 22" fill="none" xmlns="http://www.w3.org/2000/svg">
<path d="M7.75 5.44444C8.34674 5.44444 8.91903 5.21032 9.34099 4.79357C9.76295 4.37682 10 3.81159 10 3.22222C10 2.63285 9.76295 2.06762 9.34099 1.65087C8.91903 1.23413 8.34674 1 7.75 1H3.25C2.65326 1 2.08097 1.23413 1.65901 1.65087C1.23705 2.06762 1 2.63285 1 3.22222C1 3.81159 1.23705 4.37682 1.65901 4.79357C2.08097 5.21032 2.65326 5.44444 3.25 5.44444M7.75 5.44444H3.25M7.75 5.44444V11.1022C7.74993 11.7603 7.55264 12.4036 7.183 12.9511L6.067 14.6044C5.69736 15.152 5.50007 15.7953 5.5 16.4533M3.25 5.44444V11.1022C3.25007 11.7603 3.44736 12.4036 3.817 12.9511L4.933 14.6044C5.30264 15.152 5.49993 15.7953 5.5 16.4533M4.375 21H6.625M5.5 21V16.4533M3.25 9.88889H7.75" stroke="#000359" stroke-width="1.5" stroke-linecap="round" stroke-linejoin="round"/>
</svg>
