<svg width="35" height="34" viewBox="0 0 35 34" fill="none" xmlns="http://www.w3.org/2000/svg">
<path d="M26.95 16.227H25.56C25.3783 14.3366 24.5445 12.5682 23.2016 11.2253C21.8587 9.88245 20.0904 9.04866 18.2 8.86699V7.47699C18.2 7.27808 18.121 7.08731 17.9803 6.94666C17.8397 6.80601 17.6489 6.72699 17.45 6.72699C17.2511 6.72699 17.0603 6.80601 16.9197 6.94666C16.779 7.08731 16.7 7.27808 16.7 7.47699V8.86699C14.8178 9.05774 13.0602 9.89576 11.7271 11.238C10.3939 12.5803 9.56792 14.3436 9.39 16.227H8C7.90151 16.227 7.80398 16.2464 7.71299 16.2841C7.62199 16.3218 7.53931 16.377 7.46967 16.4467C7.40003 16.5163 7.34478 16.599 7.30709 16.69C7.2694 16.781 7.25 16.8785 7.25 16.977C7.25 17.0755 7.2694 17.173 7.30709 17.264C7.34478 17.355 7.40003 17.4377 7.46967 17.5073C7.53931 17.577 7.62199 17.6322 7.71299 17.6699C7.80398 17.7076 7.90151 17.727 8 17.727H9.39C9.57167 19.6174 10.4055 21.3857 11.7484 22.7286C13.0913 24.0715 14.8596 24.9053 16.75 25.087V26.477C16.75 26.6759 16.829 26.8667 16.9697 27.0073C17.1103 27.148 17.3011 27.227 17.5 27.227C17.6989 27.227 17.8897 27.148 18.0303 27.0073C18.171 26.8667 18.25 26.6759 18.25 26.477V25.087C20.1397 24.9035 21.907 24.0691 23.2496 22.7265C24.5921 21.384 25.4265 19.6167 25.61 17.727H27C27.0985 17.727 27.196 17.7076 27.287 17.6699C27.378 17.6322 27.4607 17.577 27.5303 17.5073C27.6 17.4377 27.6552 17.355 27.6929 17.264C27.7306 17.173 27.75 17.0755 27.75 16.977C27.75 16.8785 27.7306 16.781 27.6929 16.69C27.6552 16.599 27.6 16.5163 27.5303 16.4467C27.4607 16.377 27.378 16.3218 27.287 16.2841C27.196 16.2464 27.0985 16.227 27 16.227H26.95ZM17.45 23.617C16.1367 23.617 14.853 23.2276 13.761 22.4979C12.6691 21.7683 11.818 20.7313 11.3154 19.518C10.8129 18.3047 10.6814 16.9696 10.9376 15.6816C11.1938 14.3936 11.8262 13.2104 12.7548 12.2818C13.6834 11.3532 14.8666 10.7208 16.1546 10.4646C17.4426 10.2084 18.7777 10.3399 19.991 10.8424C21.2043 11.345 22.2413 12.1961 22.971 13.288C23.7006 14.3799 24.09 15.6637 24.09 16.977C24.09 18.7389 23.3908 20.4289 22.1458 21.6757C20.9008 22.9225 19.212 23.6243 17.45 23.627V23.617Z" fill="#000359"/>
<path d="M21.98 16.987C21.98 17.8853 21.7135 18.7635 21.2142 19.5103C20.7149 20.2571 20.0052 20.839 19.1751 21.1823C18.3449 21.5257 17.4315 21.615 16.5506 21.439C15.6697 21.263 14.8607 20.8296 14.2262 20.1937C13.5917 19.5578 13.1601 18.7479 12.986 17.8665C12.812 16.9852 12.9033 16.072 13.2485 15.2426C13.5936 14.4132 14.1771 13.7049 14.925 13.2072C15.6729 12.7096 16.5516 12.445 17.45 12.447C18.0457 12.447 18.6356 12.5645 19.1859 12.7928C19.7361 13.021 20.2359 13.3556 20.6567 13.7773C21.0775 14.199 21.411 14.6996 21.638 15.2503C21.8651 15.8011 21.9813 16.3912 21.98 16.987Z" fill="#000359"/>
</svg>
