<svg width="24" height="25" viewBox="0 0 24 25" fill="none" xmlns="http://www.w3.org/2000/svg">
<path d="M21.8055 10.8403H21V10.7988H12V14.7988H17.6515C16.827 17.1273 14.6115 18.7988 12 18.7988C8.6865 18.7988 6 16.1123 6 12.7988C6 9.48533 8.6865 6.79883 12 6.79883C13.5295 6.79883 14.921 7.37583 15.9805 8.31833L18.809 5.48983C17.023 3.82533 14.634 2.79883 12 2.79883C6.4775 2.79883 2 7.27633 2 12.7988C2 18.3213 6.4775 22.7988 12 22.7988C17.5225 22.7988 22 18.3213 22 12.7988C22 12.1283 21.931 11.4738 21.8055 10.8403Z" fill="#FFC107"/>
<path d="M3.153 8.14433L6.4385 10.5538C7.3275 8.35283 9.4805 6.79883 12 6.79883C13.5295 6.79883 14.921 7.37583 15.9805 8.31833L18.809 5.48983C17.023 3.82533 14.634 2.79883 12 2.79883C8.159 2.79883 4.828 4.96733 3.153 8.14433Z" fill="#FF3D00"/>
<path d="M12 22.7989C14.583 22.7989 16.93 21.8104 18.7045 20.2029L15.6095 17.5839C14.572 18.3735 13.3038 18.8003 12 18.7989C9.399 18.7989 7.1905 17.1404 6.3585 14.8259L3.0975 17.3384C4.7525 20.5769 8.1135 22.7989 12 22.7989Z" fill="#4CAF50"/>
<path d="M21.8055 10.8403H21V10.7988H12V14.7988H17.6515C17.2571 15.907 16.5467 16.8754 15.608 17.5843L15.6095 17.5833L18.7045 20.2023C18.4855 20.4013 22 17.7988 22 12.7988C22 12.1283 21.931 11.4738 21.8055 10.8403Z" fill="#1976D2"/>
</svg>
