<svg width="8" height="14" viewBox="0 0 8 14" fill="none" xmlns="http://www.w3.org/2000/svg">
<path fill-rule="evenodd" clip-rule="evenodd" d="M0.29278 8.06229C0.105309 7.87476 -6.59484e-06 7.62045 -6.57166e-06 7.35529C-6.54848e-06 7.09012 0.105309 6.83582 0.29278 6.64829L5.94978 0.991288C6.04203 0.895778 6.15237 0.819595 6.27438 0.767186C6.39638 0.714777 6.5276 0.687192 6.66038 0.686038C6.79316 0.684884 6.92484 0.710186 7.04773 0.760467C7.17063 0.810747 7.28228 0.885001 7.37618 0.978894C7.47007 1.07279 7.54432 1.18444 7.5946 1.30733C7.64488 1.43023 7.67018 1.56191 7.66903 1.69469C7.66788 1.82747 7.64029 1.95869 7.58788 2.08069C7.53547 2.2027 7.45929 2.31304 7.36378 2.40529L2.41378 7.35529L7.36378 12.3053C7.54594 12.4939 7.64673 12.7465 7.64445 13.0087C7.64218 13.2709 7.53701 13.5217 7.3516 13.7071C7.16619 13.8925 6.91538 13.9977 6.65318 14C6.39098 14.0022 6.13838 13.9014 5.94978 13.7193L0.29278 8.06229Z" fill="#000359"/>
</svg>

