<svg width="118" height="35" viewBox="0 0 118 35" fill="none" xmlns="http://www.w3.org/2000/svg">
<g clip-path="url(#clip0_328_787)">
<path d="M17.407 0.00817871C15.6185 0.00817351 13.9029 0.718701 12.6366 1.98391C11.3704 3.24912 10.6569 4.9657 10.6526 6.75713C10.6526 10.4902 17.3989 16.2937 17.3989 16.2937C17.3989 16.2937 24.1452 10.4902 24.1452 6.75713C24.1452 5.87085 23.971 4.99324 23.6323 4.17442C23.2937 3.3556 22.7974 2.6116 22.1717 1.9849C21.546 1.3582 20.8032 0.861079 19.9856 0.521912C19.1681 0.182746 18.2919 0.00817871 17.407 0.00817871ZM17.407 8.56663C17.0143 8.56663 16.6304 8.44999 16.3039 8.23145C15.9773 8.01292 15.7228 7.70231 15.5725 7.3389C15.4222 6.97549 15.3829 6.57561 15.4595 6.18981C15.5362 5.80402 15.7253 5.44964 16.003 5.1715C16.2807 4.89336 16.6345 4.70394 17.0197 4.6272C17.4048 4.55046 17.8041 4.58985 18.1669 4.74038C18.5297 4.89091 18.8399 5.14582 19.0581 5.47288C19.2762 5.79994 19.3927 6.18446 19.3927 6.57781C19.3916 6.83899 19.3392 7.0974 19.2384 7.33828C19.1377 7.57917 18.9905 7.79781 18.8054 7.98174C18.6202 8.16566 18.4007 8.31126 18.1594 8.41021C17.9181 8.50917 17.6597 8.55955 17.3989 8.55848L17.407 8.56663Z" fill="#000359"/>
<path d="M10.7421 28.2429C10.7421 24.5097 17.4884 18.7063 17.4884 18.7063C17.4884 18.7063 24.2103 24.5097 24.2103 28.2429C24.2103 30.035 23.4996 31.7537 22.2344 33.0209C20.9692 34.2881 19.2532 35 17.464 35C15.6748 35 13.9588 34.2881 12.6936 33.0209C11.4284 31.7537 10.7177 30.035 10.7177 28.2429H10.7421Z" fill="#000359"/>
<path d="M28.2305 24.2734C24.5033 24.2734 18.7091 17.5163 18.7091 17.5163C18.7091 17.5163 24.5033 10.7592 28.2305 10.7592C30.0197 10.7592 31.7357 11.4711 33.0009 12.7383C34.2661 14.0055 34.9768 15.7242 34.9768 17.5163C34.9768 19.3084 34.2661 21.0271 33.0009 22.2943C31.7357 23.5615 30.0197 24.2734 28.2305 24.2734Z" fill="#000359"/>
<path d="M6.74635 10.7429C10.4735 10.7429 16.2677 17.5 16.2677 17.5C16.2677 17.5 10.4735 24.2571 6.74635 24.2571C4.9571 24.2571 3.24114 23.5452 1.97596 22.278C0.710774 21.0108 0 19.2921 0 17.5C0 15.7079 0.710774 13.9892 1.97596 12.722C3.24114 11.4548 4.9571 10.7429 6.74635 10.7429Z" fill="#000359"/>
<path d="M43.7414 3.31735V7.63733H49.9506V9.16155H43.7414V14.1744H41.9266V1.76868H50.6667V3.31735H43.7414Z" fill="#000359"/>
<path d="M57.7467 4.69495V6.32513C57.6194 6.31735 57.4916 6.31735 57.3643 6.32513C55.5414 6.32513 54.402 7.4418 54.402 9.49583V14.1745H52.6931V4.78461H54.3207V6.36588C54.9392 5.26551 56.1029 4.69495 57.7467 4.69495Z" fill="#000359"/>
<path d="M68.0168 10.05H60.4079C60.5157 10.8556 60.9275 11.5892 61.5586 12.1001C62.1898 12.611 62.9923 12.8603 63.8014 12.7969C64.3105 12.8167 64.818 12.7256 65.2886 12.5301C65.7593 12.3345 66.182 12.0389 66.5276 11.6639L67.4634 12.7643C66.9964 13.2735 66.4235 13.6739 65.7851 13.9373C65.1467 14.2006 64.4585 14.3205 63.7688 14.2885C60.7415 14.2885 58.7233 12.2834 58.7233 9.47944C58.6986 8.85003 58.8031 8.22223 59.0303 7.63487C59.2575 7.04751 59.6026 6.51308 60.0442 6.06463C60.4859 5.61617 61.0147 5.26323 61.5979 5.02763C62.1812 4.79203 62.8065 4.67877 63.4352 4.69486C66.137 4.69486 68.0656 6.64293 68.0656 9.5365C68.0494 9.67507 68.0331 9.88699 68.0168 10.05ZM60.4079 8.82737H66.4218C66.3359 8.08897 65.9821 7.4079 65.4278 6.91359C64.8734 6.41928 64.157 6.14617 63.4148 6.14617C62.6726 6.14617 61.9562 6.41928 61.4019 6.91359C60.8475 7.4079 60.4938 8.08897 60.4079 8.82737Z" fill="#000359"/>
<path d="M78.4903 10.05H70.8895C70.9973 10.8556 71.4091 11.5892 72.0403 12.1001C72.6714 12.611 73.474 12.8603 74.283 12.7969C74.7895 12.8143 75.2938 12.7221 75.7614 12.5266C76.2291 12.3311 76.6492 12.0368 76.993 11.6639L77.9207 12.7643C77.4524 13.2741 76.8781 13.6749 76.2383 13.9383C75.5985 14.2016 74.9089 14.3212 74.2179 14.2885C71.1987 14.2885 69.1805 12.2834 69.1805 9.47946C69.1547 8.85044 69.2581 8.22281 69.4844 7.63548C69.7107 7.04814 70.055 6.51361 70.496 6.06503C70.937 5.61645 71.4653 5.26337 72.0481 5.02768C72.631 4.79199 73.2559 4.67871 73.8843 4.69487C76.5942 4.69487 78.5229 6.64294 78.5229 9.53651C78.5232 9.70821 78.5124 9.87975 78.4903 10.05ZM70.8895 8.82738H76.9034C76.8175 8.08898 76.4638 7.40791 75.9094 6.9136C75.3551 6.41929 74.6387 6.14619 73.8965 6.14619C73.1543 6.14619 72.4379 6.41929 71.8835 6.9136C71.3292 7.40791 70.9754 8.08898 70.8895 8.82738Z" fill="#000359"/>
<path d="M89.3789 1.02698V14.1744H87.7513V12.6909C87.3695 13.216 86.8649 13.6392 86.2818 13.9235C85.6986 14.2077 85.0547 14.3442 84.4066 14.3211C83.7721 14.3457 83.1395 14.2377 82.5489 14.0039C81.9584 13.7702 81.423 13.4158 80.9767 12.9635C80.5303 12.5111 80.183 11.9706 79.9567 11.3764C79.7304 10.7821 79.6301 10.1472 79.6622 9.51207C79.6261 8.87348 79.7244 8.23442 79.9508 7.63633C80.1771 7.03824 80.5264 6.49447 80.976 6.04027C81.4257 5.58608 81.9656 5.23161 82.5608 4.99983C83.156 4.76806 83.7932 4.66417 84.431 4.69489C85.0536 4.67351 85.6724 4.79882 86.2378 5.06073C86.8032 5.32263 87.2993 5.71382 87.6862 6.2028V1.02698H89.3789ZM87.6862 9.47947C87.7079 9.05011 87.6423 8.6208 87.4932 8.21764C87.3442 7.81448 87.1148 7.4459 86.8191 7.13429C86.5234 6.82269 86.1675 6.57457 85.773 6.40503C85.3786 6.23549 84.9538 6.14806 84.5246 6.14806C84.0954 6.14806 83.6706 6.23549 83.2762 6.40503C82.8817 6.57457 82.5258 6.82269 82.2301 7.13429C81.9344 7.4459 81.705 7.81448 81.556 8.21764C81.4069 8.6208 81.3413 9.05011 81.363 9.47947C81.3413 9.90883 81.4069 10.3381 81.556 10.7413C81.705 11.1445 81.9344 11.513 82.2301 11.8246C82.5258 12.1363 82.8817 12.3844 83.2762 12.5539C83.6706 12.7235 84.0954 12.8109 84.5246 12.8109C84.9538 12.8109 85.3786 12.7235 85.773 12.5539C86.1675 12.3844 86.5234 12.1363 86.8191 11.8246C87.1148 11.513 87.3442 11.1445 87.4932 10.7413C87.6423 10.3381 87.7079 9.90883 87.6862 9.47947Z" fill="#000359"/>
<path d="M91.0309 9.4795C91.0147 8.50894 91.2873 7.55551 91.8139 6.74061C92.3405 5.92572 93.0974 5.28622 93.988 4.90353C94.8787 4.52085 95.8629 4.4123 96.8154 4.59169C97.7678 4.77109 98.6454 5.23032 99.3365 5.91092C100.028 6.59152 100.501 7.46269 100.696 8.41352C100.891 9.36435 100.799 10.3518 100.432 11.2502C100.065 12.1486 99.4393 12.9173 98.6346 13.4583C97.83 13.9994 96.8828 14.2884 95.9137 14.2885C95.2712 14.3192 94.6294 14.2164 94.0286 13.9867C93.4278 13.7569 92.8809 13.4052 92.4223 12.9535C91.9637 12.5019 91.6034 11.9601 91.3639 11.3622C91.1245 10.7644 91.0111 10.1234 91.0309 9.4795ZM99.063 9.4795C99.063 8.64074 98.7304 7.83633 98.1382 7.24324C97.5461 6.65015 96.743 6.31695 95.9055 6.31695C95.0681 6.31695 94.265 6.65015 93.6728 7.24324C93.0807 7.83633 92.748 8.64074 92.748 9.4795C92.748 10.3183 93.0807 11.1227 93.6728 11.7158C94.265 12.3089 95.0681 12.6421 95.9055 12.6421C96.743 12.6421 97.5461 12.3089 98.1382 11.7158C98.7304 11.1227 99.063 10.3183 99.063 9.4795Z" fill="#000359"/>
<path d="M118 8.7704V14.1744H116.299V8.97417C116.299 7.13206 115.412 6.22731 113.858 6.22731C112.157 6.22731 111.05 7.31138 111.05 9.34911V14.1826H109.349V8.97417C109.349 7.13206 108.462 6.22731 106.908 6.22731C105.207 6.22731 104.092 7.31138 104.092 9.34911V14.1826H102.391V4.7846H104.019V6.18656C104.397 5.68871 104.892 5.29206 105.46 5.03185C106.028 4.77164 106.651 4.65591 107.274 4.69494C107.925 4.64921 108.575 4.78778 109.151 5.0948C109.726 5.40182 110.204 5.8649 110.529 6.43108C110.942 5.86573 111.488 5.41136 112.118 5.10845C112.749 4.80553 113.444 4.66348 114.143 4.69494C116.438 4.69494 118 6.00724 118 8.7704Z" fill="#000359"/>
<path d="M61.1972 19.4969L57.055 31.9108H55.1914L51.8142 22.0156L48.437 31.9108H46.5408L42.3986 19.4969H44.2215L47.5662 29.5878L51.0655 19.4969H52.6931L56.1029 29.6367L59.5208 19.4969H61.1972Z" fill="#000359"/>
<path d="M69.5712 26.2378V31.9434H67.9436V30.6638C67.5904 31.127 67.1265 31.4938 66.5946 31.7303C66.0627 31.9667 65.4799 32.0653 64.9 32.0168C62.776 32.0168 61.4332 30.8757 61.4332 29.2455C61.4332 27.7457 62.4016 26.4986 65.2011 26.4986H67.8866V26.1645C67.8866 24.7299 67.0728 23.8985 65.372 23.8985C64.296 23.8877 63.2484 24.2441 62.4016 24.9092L61.6448 23.6458C62.7659 22.823 64.1292 22.3984 65.5185 22.4395C68.1552 22.4232 69.5712 23.6458 69.5712 26.2378ZM67.8703 29.0336V27.7213H65.2499C63.5735 27.7213 63.0934 28.3815 63.0934 29.1803C63.0934 30.1176 63.9072 30.7045 65.1604 30.7045C65.7301 30.7466 66.2986 30.6077 66.785 30.3078C67.2715 30.0078 67.6512 29.562 67.8703 29.0336Z" fill="#000359"/>
<path d="M72.3706 18.7552H74.0714V31.9108H72.3706V18.7552Z" fill="#000359"/>
<path d="M80.5981 27.5256L78.6531 29.3514V31.9271H76.9523V18.7552H78.6531V27.1914L83.7637 22.5128H85.8145L81.8757 26.3926L86.2051 31.9108H84.1218L80.5981 27.5256Z" fill="#000359"/>
</g>
<defs>
<clipPath id="clip0_328_787">
<rect width="118" height="35" fill="white"/>
</clipPath>
</defs>
</svg>
