<svg width="19" height="18" viewBox="0 0 19 18" fill="none" xmlns="http://www.w3.org/2000/svg">
<path d="M0.499722 6.73922C0.497394 6.89112 0.541254 7.04015 0.625495 7.16658C0.709735 7.29301 0.830385 7.39087 0.971472 7.44722L8.17222 10.328L11.053 17.5295C11.1086 17.6688 11.2048 17.7882 11.329 17.8723C11.4532 17.9564 11.5997 18.0013 11.7497 18.0012H11.7617C11.9136 17.9988 12.0612 17.9504 12.185 17.8622C12.3087 17.7741 12.4028 17.6505 12.4547 17.5077L18.4547 1.00772C18.5038 0.873489 18.5136 0.728018 18.4828 0.588439C18.452 0.44886 18.382 0.320986 18.2809 0.219877C18.1799 0.118768 18.0521 0.0486334 17.9125 0.0177343C17.773 -0.0131647 17.6275 -0.00354184 17.4932 0.0454695L0.993222 6.04547C0.850338 6.09745 0.726628 6.19164 0.638493 6.31553C0.550359 6.43943 0.501963 6.58719 0.499722 6.73922Z" fill="#000359"/>
</svg>
