<svg width="17" height="18" viewBox="0 0 17 18" fill="none" xmlns="http://www.w3.org/2000/svg">
<path d="M13.5 6C12.9067 6 12.3266 5.82405 11.8333 5.49441C11.3399 5.16477 10.9554 4.69623 10.7284 4.14805C10.5013 3.59987 10.4419 2.99667 10.5576 2.41473C10.6734 1.83279 10.9591 1.29824 11.3787 0.878681C11.7982 0.459123 12.3328 0.173401 12.9147 0.0576455C13.4967 -0.0581102 14.0999 0.00129984 14.6481 0.228363C15.1962 0.455426 15.6648 0.839943 15.9944 1.33329C16.3241 1.82664 16.5 2.40666 16.5 3C16.499 3.79535 16.1826 4.55783 15.6202 5.12023C15.0578 5.68262 14.2953 5.99901 13.5 6ZM13.5 1.5C13.2033 1.5 12.9133 1.58797 12.6666 1.7528C12.42 1.91762 12.2277 2.15189 12.1142 2.42598C12.0006 2.70007 11.9709 3.00167 12.0288 3.29264C12.0867 3.58361 12.2296 3.85088 12.4393 4.06066C12.6491 4.27044 12.9164 4.4133 13.2074 4.47118C13.4983 4.52906 13.7999 4.49935 14.074 4.38582C14.3481 4.27229 14.5824 4.08003 14.7472 3.83336C14.912 3.58668 15 3.29667 15 3C15 2.60218 14.842 2.22065 14.5607 1.93934C14.2794 1.65804 13.8978 1.5 13.5 1.5ZM15 13.5H11.8853L11.385 10.5H13.5V9H1.5V10.5H3.615L3.11475 13.5H0V15H2.865L2.36475 18H3.885L4.38525 15H10.614L11.1143 18H12.6353L12.135 15H15V13.5ZM4.635 13.5L5.13525 10.5H9.86475L10.3643 13.5H4.635Z" fill="#000359"/>
</svg>
