<svg width="20" height="22" viewBox="0 0 20 22" fill="none" xmlns="http://www.w3.org/2000/svg">
<path d="M12.8312 22C12.2858 22 11.8186 21.8066 11.4296 21.4197C11.0405 21.0328 10.846 20.5678 10.846 20.0245C10.846 19.4812 11.0405 19.0161 11.4296 18.6293C11.8186 18.2424 12.2863 18.049 12.8326 18.049C13.3789 18.049 13.8466 18.2424 14.2357 18.6293C14.6247 19.0161 14.8192 19.4812 14.8192 20.0245C14.8192 20.5678 14.6247 21.0328 14.2357 21.4197C13.8466 21.8066 13.3775 22 12.8312 22ZM1.9852 22C1.45097 22 0.986551 21.8066 0.59193 21.4197C0.19731 21.0328 0 20.5678 0 20.0245C0 19.4812 0.19731 19.0161 0.59193 18.6293C0.986551 18.2424 1.45144 18.049 1.9866 18.049C2.55712 18.049 3.03085 18.2424 3.40779 18.6293C3.78473 19.0161 3.97273 19.4812 3.9718 20.0245C3.97087 20.5678 3.78287 21.0328 3.40779 21.4197C3.03271 21.8066 2.55759 22 1.9852 22ZM4.19238 15.2724H11.1685C11.4189 15.2724 11.6246 15.1924 11.7856 15.0322C11.9466 14.8721 12.0271 14.6676 12.0271 14.4186V6.14451L4.19238 15.2724ZM2.63298 16.6607C2.33515 16.6607 2.12574 16.5279 2.00475 16.2623C1.88375 15.9966 1.92331 15.7486 2.12341 15.5181L14.2398 1.39244C14.6512 0.913022 15.0882 0.561326 15.5507 0.337351C16.0133 0.113376 16.5285 0.00138817 17.0962 0.00138817C17.9152 0.00138817 18.6039 0.279043 19.1624 0.834353C19.7208 1.38966 20 2.07917 20 2.90288V2.9251C20 3.12131 19.9335 3.28605 19.8004 3.41932C19.6673 3.5526 19.5011 3.61923 19.302 3.61923C19.1028 3.61923 18.9371 3.5526 18.805 3.41932C18.6728 3.28605 18.6063 3.12131 18.6053 2.9251V2.89733C18.6053 2.46882 18.4611 2.11018 18.1726 1.82142C17.8831 1.53358 17.5243 1.38966 17.0962 1.38966C16.7416 1.38966 16.4275 1.45815 16.1538 1.59513C15.8802 1.7321 15.6261 1.92878 15.3916 2.18515L13.4231 4.46747V14.4103C13.4231 15.0369 13.2026 15.5686 12.7614 16.0054C12.3203 16.4423 11.7898 16.6607 11.1699 16.6607H2.63298ZM6.55591 7.16211L1.99358 2.62523C1.76276 2.39477 1.67109 2.12869 1.71855 1.82697C1.76602 1.52525 1.93029 1.29434 2.21136 1.13422C2.94569 0.767716 3.70236 0.487285 4.48136 0.292926C5.2613 0.097642 6.08497 0 6.95239 0C7.78538 0 8.59603 0.0828336 9.38434 0.248501C10.1726 0.414169 10.987 0.671463 11.8274 1.02038L6.55591 7.16211ZM6.46098 5.12135L9.37456 1.72563C8.97343 1.61456 8.56997 1.53034 8.16418 1.47296C7.75746 1.41743 7.35353 1.38966 6.95239 1.38966C6.34371 1.38966 5.74806 1.44658 5.16543 1.56042C4.58281 1.67426 4.0081 1.8515 3.4413 2.09213L6.46098 5.12135Z" fill="#000359"/>
</svg>
