<svg width="21" height="21" viewBox="0 0 21 21" fill="none" xmlns="http://www.w3.org/2000/svg">
<path d="M13.5 17.25C12.6337 17.2508 11.7807 17.0368 11.0172 16.6273C10.2538 16.2178 9.60378 15.6254 9.12525 14.9033L10.3748 14.073C10.7168 14.5888 11.1812 15.0119 11.7265 15.3046C12.2718 15.5973 12.8811 15.7505 13.5 15.7505C14.1189 15.7505 14.7282 15.5973 15.2735 15.3046C15.8188 15.0119 16.2832 14.5888 16.6253 14.073L17.8748 14.9033C17.3962 15.6254 16.7462 16.2178 15.9828 16.6273C15.2193 17.0368 14.3663 17.2508 13.5 17.25ZM16.5 9.00002C16.2033 9.00002 15.9133 9.08799 15.6666 9.25281C15.42 9.41763 15.2277 9.6519 15.1142 9.92599C15.0006 10.2001 14.9709 10.5017 15.0288 10.7927C15.0867 11.0836 15.2296 11.3509 15.4393 11.5607C15.6491 11.7705 15.9164 11.9133 16.2074 11.9712C16.4983 12.0291 16.7999 11.9994 17.074 11.8858C17.3481 11.7723 17.5824 11.58 17.7472 11.3334C17.912 11.0867 18 10.7967 18 10.5C18.002 10.3025 17.9646 10.1065 17.8899 9.92363C17.8152 9.74073 17.7048 9.57457 17.5651 9.43489C17.4254 9.2952 17.2593 9.18478 17.0764 9.11011C16.8935 9.03544 16.6975 8.99801 16.5 9.00002ZM10.5 9.00002C10.2033 9.00002 9.91332 9.08799 9.66665 9.25281C9.41997 9.41763 9.22771 9.6519 9.11418 9.92599C9.00065 10.2001 8.97094 10.5017 9.02882 10.7927C9.0867 11.0836 9.22956 11.3509 9.43934 11.5607C9.64912 11.7705 9.91639 11.9133 10.2074 11.9712C10.4983 12.0291 10.7999 11.9994 11.074 11.8858C11.3481 11.7723 11.5824 11.58 11.7472 11.3334C11.912 11.0867 12 10.7967 12 10.5C12.002 10.3025 11.9646 10.1065 11.8899 9.92363C11.8152 9.74073 11.7048 9.57457 11.5651 9.43489C11.4254 9.2952 11.2593 9.18478 11.0764 9.11011C10.8935 9.03544 10.6975 8.99801 10.5 9.00002Z" fill="#000359"/>
<path d="M19.5 4.5H15V1.5C15 1.10218 14.842 0.720644 14.5607 0.43934C14.2794 0.158035 13.8978 0 13.5 0H1.5C1.10218 0 0.720644 0.158035 0.43934 0.43934C0.158035 0.720644 0 1.10218 0 1.5V9C0.0029224 10.8323 0.67582 12.6002 1.89191 13.9708C3.10801 15.3413 4.78333 16.2198 6.60225 16.4408C7.28006 18.0306 8.48623 19.3376 10.0167 20.1406C11.5472 20.9435 13.3081 21.1932 15.0015 20.8473C16.6949 20.5014 18.2168 19.5813 19.3099 18.2424C20.4029 16.9036 20.9999 15.2283 21 13.5V6C21 5.60218 20.842 5.22064 20.5607 4.93934C20.2794 4.65804 19.8978 4.5 19.5 4.5ZM1.5 9V1.5H13.5V4.5H7.5C7.10218 4.5 6.72064 4.65804 6.43934 4.93934C6.15804 5.22064 6 5.60218 6 6V13.5C6.00206 13.9479 6.04422 14.3947 6.126 14.835C4.81109 14.5243 3.63932 13.7794 2.79994 12.7207C1.96056 11.6619 1.50259 10.3511 1.5 9ZM19.5 13.5C19.5 15.0913 18.8679 16.6174 17.7426 17.7426C16.6174 18.8679 15.0913 19.5 13.5 19.5C11.9087 19.5 10.3826 18.8679 9.25736 17.7426C8.13214 16.6174 7.5 15.0913 7.5 13.5V6H19.5V13.5Z" fill="#000359"/>
</svg>
