<svg width="24" height="18" viewBox="0 0 24 18" fill="none" xmlns="http://www.w3.org/2000/svg">
<path d="M15.522 8.46451C15.522 6.79651 16.254 5.83351 17.499 5.83351C18.522 5.83351 19.2075 6.53851 19.2795 7.49551H21V7.33051C20.9205 5.55001 19.464 4.33051 17.487 4.33051C15.081 4.33051 13.71 5.90551 13.71 8.45701V9.57751C13.71 12.1275 15.0675 13.6725 17.487 13.6725C19.458 13.6725 20.9145 12.4845 21 10.764V10.593H19.2795C19.2075 11.5155 18.534 12.168 17.499 12.168C16.2405 12.168 15.522 11.238 15.522 9.57751V8.46451ZM6.6855 13.5L8.2155 7.224H8.283L9.813 13.5H11.322L13.5 4.50151H11.727L10.497 11.034H10.413L8.955 4.50151H7.545L6.087 11.034H6.0075L4.767 4.50151H3L5.178 13.5H6.6855Z" fill="#000359"/>
<path d="M21 1.5C21.3978 1.5 21.7794 1.65804 22.0607 1.93934C22.342 2.22064 22.5 2.60218 22.5 3V15C22.5 15.3978 22.342 15.7794 22.0607 16.0607C21.7794 16.342 21.3978 16.5 21 16.5H3C2.60218 16.5 2.22064 16.342 1.93934 16.0607C1.65804 15.7794 1.5 15.3978 1.5 15V3C1.5 2.60218 1.65804 2.22064 1.93934 1.93934C2.22064 1.65804 2.60218 1.5 3 1.5H21ZM3 0C2.20435 0 1.44129 0.31607 0.87868 0.87868C0.316071 1.44129 0 2.20435 0 3L0 15C0 15.7956 0.316071 16.5587 0.87868 17.1213C1.44129 17.6839 2.20435 18 3 18H21C21.7956 18 22.5587 17.6839 23.1213 17.1213C23.6839 16.5587 24 15.7956 24 15V3C24 2.20435 23.6839 1.44129 23.1213 0.87868C22.5587 0.31607 21.7956 0 21 0H3Z" fill="#000359"/>
</svg>
