<svg width="22" height="21" viewBox="0 0 22 21" fill="none" xmlns="http://www.w3.org/2000/svg">
<path d="M1 14.7222C1 16.122 1.55605 17.4644 2.54583 18.4542C3.5356 19.4439 4.87802 20 6.27778 20C7.67753 20 9.01996 19.4439 10.0097 18.4542C10.9995 17.4644 11.5556 16.122 11.5556 14.7222C11.5556 13.3225 10.9995 11.98 10.0097 10.9903C9.01996 10.0005 7.67753 9.44444 6.27778 9.44444C4.87802 9.44444 3.5356 10.0005 2.54583 10.9903C1.55605 11.98 1 13.3225 1 14.7222Z" stroke="#000359" stroke-width="1.5" stroke-linecap="round" stroke-linejoin="round"/>
<path d="M17.8889 14.7222C17.8889 14.7222 17.5553 14.1325 16.9614 13.5386C16.3675 12.9447 15.5621 12.6111 14.7222 12.6111H11.1333M1 1H2.05556C2.61546 1 3.15243 1.22242 3.54834 1.61833C3.94425 2.01424 4.16667 2.55121 4.16667 3.11111V9.44444M4.16667 6.27778H15.7778M13.6667 6.27778V12.6111" stroke="#000359" stroke-width="1.5" stroke-linecap="round" stroke-linejoin="round"/>
<circle cx="19.1111" cy="18.1667" r="2.11111" fill="#000359"/>
</svg>
