<svg width="43" height="43" viewBox="0 0 43 43" fill="none" xmlns="http://www.w3.org/2000/svg">
<path d="M21.4 2.41565e-05C20.31 -0.00260545 19.2302 0.209478 18.2222 0.624164C17.2141 1.03885 16.2977 1.64802 15.5251 2.41689C14.7525 3.18576 14.1389 4.09927 13.7194 5.10527C13.2999 6.11127 13.0826 7.19005 13.08 8.28002C13.08 12.86 21.37 19.98 21.37 19.98C21.37 19.98 29.66 12.86 29.66 8.28002C29.66 6.08749 28.7904 3.98447 27.2419 2.43224C25.6934 0.880013 23.5925 0.00532013 21.4 2.41565e-05ZM21.4 10.5C20.9174 10.5 20.4456 10.3569 20.0444 10.0888C19.6431 9.8207 19.3304 9.43962 19.1457 8.99377C18.961 8.54792 18.9127 8.05732 19.0068 7.584C19.101 7.11069 19.3334 6.67592 19.6746 6.33468C20.0159 5.99344 20.4506 5.76106 20.9239 5.66691C21.3972 5.57276 21.8879 5.62108 22.3337 5.80576C22.7796 5.99044 23.1606 6.30318 23.4287 6.70443C23.6969 7.10569 23.84 7.57744 23.84 8.06002C23.84 8.38129 23.7765 8.6994 23.6533 8.99609C23.53 9.29278 23.3494 9.5622 23.1218 9.78891C22.8941 10.0156 22.624 10.1951 22.3268 10.3172C22.0296 10.4392 21.7112 10.5013 21.39 10.5H21.4Z" fill="#FFD200"/>
<path d="M13.2 34.68C13.2 30.1 21.49 22.98 21.49 22.98C21.49 22.98 29.78 30.07 29.78 34.68C29.78 36.8786 28.9065 38.9872 27.3519 40.5419C25.7972 42.0966 23.6886 42.97 21.49 42.97C19.2913 42.97 17.1827 42.0966 15.628 40.5419C14.0734 38.9872 13.2 36.8786 13.2 34.68Z" fill="#FFD200"/>
<path d="M34.69 29.7799C30.11 29.7799 22.99 21.49 22.99 21.49C22.99 21.49 30.11 13.2 34.69 13.2C36.8886 13.2 38.9972 14.0734 40.5519 15.628C42.1066 17.1827 42.98 19.2913 42.98 21.49C42.98 23.6886 42.1066 25.7972 40.5519 27.3519C38.9972 28.9065 36.8886 29.7799 34.69 29.7799Z" fill="#FFD200"/>
<path d="M8.29 13.1801C12.87 13.1801 19.99 21.4701 19.99 21.4701C19.99 21.4701 12.87 29.7601 8.29 29.7601C6.09135 29.7601 3.98276 28.8866 2.42809 27.332C0.873409 25.7773 0 23.6687 0 21.4701C0 19.2714 0.873409 17.1628 2.42809 15.6081C3.98276 14.0535 6.09135 13.1801 8.29 13.1801Z" fill="#FFD200"/>
</svg>
